<mxfile host="app.diagrams.net" modified="2024-04-14T09:47:34.538Z" agent="Mozilla/5.0 (Macintosh; Intel Mac OS X 10_15_7) AppleWebKit/537.36 (KHTML, like Gecko) Chrome/123.0.0.0 Safari/537.36" etag="6GFEP9j7YwBuIc9pBZUz" version="24.2.5" type="device">
  <diagram name="Page-1" id="DoSMehW-Bn85Xb-kLPtl">
    <mxGraphModel dx="1774" dy="1170" grid="1" gridSize="10" guides="1" tooltips="1" connect="1" arrows="1" fold="1" page="1" pageScale="1" pageWidth="1169" pageHeight="827" math="0" shadow="0">
      <root>
        <mxCell id="0" />
        <mxCell id="1" parent="0" />
        <mxCell id="Bq6GEns6As0nyry08mrF-45" value="" style="edgeStyle=orthogonalEdgeStyle;rounded=0;orthogonalLoop=1;jettySize=auto;html=1;" edge="1" parent="1" source="Bq6GEns6As0nyry08mrF-38" target="Bq6GEns6As0nyry08mrF-44">
          <mxGeometry relative="1" as="geometry" />
        </mxCell>
        <mxCell id="Bq6GEns6As0nyry08mrF-38" value="" style="rounded=1;whiteSpace=wrap;html=1;fillColor=none;" vertex="1" parent="1">
          <mxGeometry x="527" y="140" width="300" height="350" as="geometry" />
        </mxCell>
        <mxCell id="Bq6GEns6As0nyry08mrF-7" value="" style="edgeStyle=orthogonalEdgeStyle;rounded=0;orthogonalLoop=1;jettySize=auto;html=1;" edge="1" parent="1" source="Bq6GEns6As0nyry08mrF-2">
          <mxGeometry relative="1" as="geometry">
            <mxPoint x="247" y="250" as="targetPoint" />
          </mxGeometry>
        </mxCell>
        <mxCell id="Bq6GEns6As0nyry08mrF-2" value="FoodData Central" style="swimlane;fontStyle=0;childLayout=stackLayout;horizontal=1;startSize=30;horizontalStack=0;resizeParent=1;resizeParentMax=0;resizeLast=0;collapsible=1;marginBottom=0;whiteSpace=wrap;html=1;fillColor=#f5f5f5;fontColor=#333333;strokeColor=#666666;" vertex="1" parent="1">
          <mxGeometry x="17" y="270" width="140" height="90" as="geometry" />
        </mxCell>
        <mxCell id="Bq6GEns6As0nyry08mrF-3" value="Food Category" style="text;strokeColor=none;fillColor=none;align=left;verticalAlign=middle;spacingLeft=4;spacingRight=4;overflow=hidden;points=[[0,0.5],[1,0.5]];portConstraint=eastwest;rotatable=0;whiteSpace=wrap;html=1;" vertex="1" parent="Bq6GEns6As0nyry08mrF-2">
          <mxGeometry y="30" width="140" height="30" as="geometry" />
        </mxCell>
        <mxCell id="Bq6GEns6As0nyry08mrF-4" value="List of Ingredients" style="text;strokeColor=none;fillColor=none;align=left;verticalAlign=middle;spacingLeft=4;spacingRight=4;overflow=hidden;points=[[0,0.5],[1,0.5]];portConstraint=eastwest;rotatable=0;whiteSpace=wrap;html=1;" vertex="1" parent="Bq6GEns6As0nyry08mrF-2">
          <mxGeometry y="60" width="140" height="30" as="geometry" />
        </mxCell>
        <mxCell id="Bq6GEns6As0nyry08mrF-14" value="" style="edgeStyle=orthogonalEdgeStyle;rounded=0;orthogonalLoop=1;jettySize=auto;html=1;" edge="1" parent="1" target="Bq6GEns6As0nyry08mrF-13">
          <mxGeometry relative="1" as="geometry">
            <mxPoint x="302" y="215" as="sourcePoint" />
          </mxGeometry>
        </mxCell>
        <mxCell id="Bq6GEns6As0nyry08mrF-16" value="" style="edgeStyle=orthogonalEdgeStyle;rounded=0;orthogonalLoop=1;jettySize=auto;html=1;entryX=0.5;entryY=1;entryDx=0;entryDy=0;" edge="1" parent="1" target="Bq6GEns6As0nyry08mrF-13">
          <mxGeometry relative="1" as="geometry">
            <mxPoint x="302" y="413.5" as="sourcePoint" />
            <mxPoint x="247" y="534.5" as="targetPoint" />
          </mxGeometry>
        </mxCell>
        <mxCell id="Bq6GEns6As0nyry08mrF-10" value="" style="edgeStyle=orthogonalEdgeStyle;rounded=0;orthogonalLoop=1;jettySize=auto;html=1;exitX=1;exitY=0.5;exitDx=0;exitDy=0;entryX=0.5;entryY=0;entryDx=0;entryDy=0;" edge="1" parent="1" source="Bq6GEns6As0nyry08mrF-3" target="Bq6GEns6As0nyry08mrF-37">
          <mxGeometry relative="1" as="geometry">
            <mxPoint x="167" y="325" as="sourcePoint" />
            <mxPoint x="247" y="378" as="targetPoint" />
          </mxGeometry>
        </mxCell>
        <mxCell id="Bq6GEns6As0nyry08mrF-11" value="&lt;span style=&quot;text-wrap: wrap;&quot;&gt;1000 samples&lt;/span&gt;" style="text;html=1;align=center;verticalAlign=middle;resizable=0;points=[];autosize=1;strokeColor=none;fillColor=none;" vertex="1" parent="1">
          <mxGeometry x="177" y="270" width="100" height="30" as="geometry" />
        </mxCell>
        <mxCell id="Bq6GEns6As0nyry08mrF-12" value="&lt;span style=&quot;text-wrap: wrap;&quot;&gt;5&lt;/span&gt;&lt;span style=&quot;text-wrap: wrap; background-color: initial;&quot;&gt;00 samples&lt;/span&gt;" style="text;html=1;align=center;verticalAlign=middle;resizable=0;points=[];autosize=1;strokeColor=none;fillColor=none;" vertex="1" parent="1">
          <mxGeometry x="182" y="338" width="90" height="30" as="geometry" />
        </mxCell>
        <mxCell id="Bq6GEns6As0nyry08mrF-20" value="" style="edgeStyle=orthogonalEdgeStyle;rounded=0;orthogonalLoop=1;jettySize=auto;html=1;entryX=0;entryY=0.5;entryDx=0;entryDy=0;" edge="1" parent="1" source="Bq6GEns6As0nyry08mrF-13" target="Bq6GEns6As0nyry08mrF-38">
          <mxGeometry relative="1" as="geometry">
            <mxPoint x="517" y="330" as="targetPoint" />
          </mxGeometry>
        </mxCell>
        <mxCell id="Bq6GEns6As0nyry08mrF-13" value="Raw Dataset" style="whiteSpace=wrap;html=1;fontStyle=0;startSize=30;fillColor=#dae8fc;strokeColor=#6c8ebf;" vertex="1" parent="1">
          <mxGeometry x="337" y="280" width="90" height="70" as="geometry" />
        </mxCell>
        <mxCell id="Bq6GEns6As0nyry08mrF-17" value="Labelling base on&amp;nbsp;&lt;div&gt;k&lt;span style=&quot;background-color: initial;&quot;&gt;eyword search&lt;/span&gt;&lt;/div&gt;" style="text;html=1;align=center;verticalAlign=middle;resizable=0;points=[];autosize=1;strokeColor=none;fillColor=none;" vertex="1" parent="1">
          <mxGeometry x="307" y="180" width="120" height="40" as="geometry" />
        </mxCell>
        <mxCell id="Bq6GEns6As0nyry08mrF-18" value="Labelling with help&amp;nbsp;&lt;div&gt;of GPT4.0&lt;/div&gt;" style="text;html=1;align=center;verticalAlign=middle;resizable=0;points=[];autosize=1;strokeColor=none;fillColor=none;" vertex="1" parent="1">
          <mxGeometry x="302" y="414" width="130" height="40" as="geometry" />
        </mxCell>
        <mxCell id="Bq6GEns6As0nyry08mrF-21" value="Manual&amp;nbsp;&lt;div&gt;Correction&lt;/div&gt;" style="text;html=1;align=center;verticalAlign=middle;resizable=0;points=[];autosize=1;strokeColor=none;fillColor=none;" vertex="1" parent="1">
          <mxGeometry x="432" y="280" width="80" height="40" as="geometry" />
        </mxCell>
        <mxCell id="Bq6GEns6As0nyry08mrF-40" value="" style="edgeStyle=orthogonalEdgeStyle;rounded=0;orthogonalLoop=1;jettySize=auto;html=1;" edge="1" parent="1" source="Bq6GEns6As0nyry08mrF-24" target="Bq6GEns6As0nyry08mrF-39">
          <mxGeometry relative="1" as="geometry" />
        </mxCell>
        <mxCell id="Bq6GEns6As0nyry08mrF-24" value="Labelled Dataset" style="swimlane;fontStyle=0;childLayout=stackLayout;horizontal=1;startSize=30;horizontalStack=0;resizeParent=1;resizeParentMax=0;resizeLast=0;collapsible=1;marginBottom=0;whiteSpace=wrap;html=1;fillColor=#dae8fc;strokeColor=#6c8ebf;" vertex="1" parent="1">
          <mxGeometry x="607" y="170" width="140" height="150" as="geometry" />
        </mxCell>
        <mxCell id="Bq6GEns6As0nyry08mrF-25" value="List of Ingredients" style="text;strokeColor=none;fillColor=none;align=left;verticalAlign=middle;spacingLeft=4;spacingRight=4;overflow=hidden;points=[[0,0.5],[1,0.5]];portConstraint=eastwest;rotatable=0;whiteSpace=wrap;html=1;" vertex="1" parent="Bq6GEns6As0nyry08mrF-24">
          <mxGeometry y="30" width="140" height="30" as="geometry" />
        </mxCell>
        <mxCell id="Bq6GEns6As0nyry08mrF-26" value="Food Category" style="text;strokeColor=none;fillColor=none;align=left;verticalAlign=middle;spacingLeft=4;spacingRight=4;overflow=hidden;points=[[0,0.5],[1,0.5]];portConstraint=eastwest;rotatable=0;whiteSpace=wrap;html=1;" vertex="1" parent="Bq6GEns6As0nyry08mrF-24">
          <mxGeometry y="60" width="140" height="30" as="geometry" />
        </mxCell>
        <mxCell id="Bq6GEns6As0nyry08mrF-27" value="Diet Restriction" style="text;strokeColor=default;fillColor=none;align=left;verticalAlign=middle;spacingLeft=4;spacingRight=4;overflow=hidden;points=[[0,0.5],[1,0.5]];portConstraint=eastwest;rotatable=0;whiteSpace=wrap;html=1;" vertex="1" parent="Bq6GEns6As0nyry08mrF-24">
          <mxGeometry y="90" width="140" height="30" as="geometry" />
        </mxCell>
        <mxCell id="Bq6GEns6As0nyry08mrF-32" value="Label (boolean)" style="text;strokeColor=none;fillColor=none;align=left;verticalAlign=middle;spacingLeft=4;spacingRight=4;overflow=hidden;points=[[0,0.5],[1,0.5]];portConstraint=eastwest;rotatable=0;whiteSpace=wrap;html=1;" vertex="1" parent="Bq6GEns6As0nyry08mrF-24">
          <mxGeometry y="120" width="140" height="30" as="geometry" />
        </mxCell>
        <mxCell id="Bq6GEns6As0nyry08mrF-35" value="Randomly combine with Common Dietary" style="rhombus;whiteSpace=wrap;html=1;" vertex="1" parent="1">
          <mxGeometry x="177" y="180" width="140" height="70" as="geometry" />
        </mxCell>
        <mxCell id="Bq6GEns6As0nyry08mrF-37" value="Randomly combine with Special Dietary" style="rhombus;whiteSpace=wrap;html=1;" vertex="1" parent="1">
          <mxGeometry x="182" y="371" width="130" height="86" as="geometry" />
        </mxCell>
        <mxCell id="Bq6GEns6As0nyry08mrF-55" value="" style="edgeStyle=orthogonalEdgeStyle;rounded=0;orthogonalLoop=1;jettySize=auto;html=1;entryX=0.5;entryY=0;entryDx=0;entryDy=0;exitX=0;exitY=0.5;exitDx=0;exitDy=0;" edge="1" parent="1" source="Bq6GEns6As0nyry08mrF-27" target="Bq6GEns6As0nyry08mrF-62">
          <mxGeometry relative="1" as="geometry">
            <Array as="points">
              <mxPoint x="560" y="275" />
              <mxPoint x="560" y="500" />
              <mxPoint x="323" y="500" />
            </Array>
          </mxGeometry>
        </mxCell>
        <mxCell id="Bq6GEns6As0nyry08mrF-39" value="Prompt:&lt;div&gt;Diet + Ingredients + food category&lt;/div&gt;" style="whiteSpace=wrap;html=1;fontStyle=0;startSize=30;" vertex="1" parent="1">
          <mxGeometry x="537" y="370" width="120" height="60" as="geometry" />
        </mxCell>
        <mxCell id="Bq6GEns6As0nyry08mrF-41" value="" style="edgeStyle=orthogonalEdgeStyle;rounded=0;orthogonalLoop=1;jettySize=auto;html=1;exitX=0.495;exitY=1.033;exitDx=0;exitDy=0;exitPerimeter=0;" edge="1" parent="1" target="Bq6GEns6As0nyry08mrF-42" source="Bq6GEns6As0nyry08mrF-32">
          <mxGeometry relative="1" as="geometry">
            <mxPoint x="677" y="330" as="sourcePoint" />
          </mxGeometry>
        </mxCell>
        <mxCell id="Bq6GEns6As0nyry08mrF-70" value="" style="edgeStyle=orthogonalEdgeStyle;rounded=0;orthogonalLoop=1;jettySize=auto;html=1;entryX=0.5;entryY=0;entryDx=0;entryDy=0;" edge="1" parent="1" source="Bq6GEns6As0nyry08mrF-42" target="Bq6GEns6As0nyry08mrF-68">
          <mxGeometry relative="1" as="geometry">
            <mxPoint x="757" y="510" as="targetPoint" />
          </mxGeometry>
        </mxCell>
        <mxCell id="Bq6GEns6As0nyry08mrF-42" value="Choice:&lt;div&gt;Yes / No&lt;/div&gt;" style="whiteSpace=wrap;html=1;fontStyle=0;startSize=30;" vertex="1" parent="1">
          <mxGeometry x="697" y="370" width="120" height="60" as="geometry" />
        </mxCell>
        <mxCell id="Bq6GEns6As0nyry08mrF-47" value="" style="edgeStyle=orthogonalEdgeStyle;rounded=0;orthogonalLoop=1;jettySize=auto;html=1;" edge="1" parent="1" source="Bq6GEns6As0nyry08mrF-44" target="Bq6GEns6As0nyry08mrF-46">
          <mxGeometry relative="1" as="geometry" />
        </mxCell>
        <mxCell id="Bq6GEns6As0nyry08mrF-44" value="Train a Multiple Choice Model" style="rounded=0;whiteSpace=wrap;html=1;fillColor=#e1d5e7;strokeColor=#9673a6;" vertex="1" parent="1">
          <mxGeometry x="877" y="262.5" width="120" height="105" as="geometry" />
        </mxCell>
        <mxCell id="Bq6GEns6As0nyry08mrF-49" value="" style="edgeStyle=orthogonalEdgeStyle;rounded=0;orthogonalLoop=1;jettySize=auto;html=1;entryX=0.5;entryY=0;entryDx=0;entryDy=0;" edge="1" parent="1" source="Bq6GEns6As0nyry08mrF-46" target="Bq6GEns6As0nyry08mrF-44">
          <mxGeometry relative="1" as="geometry">
            <mxPoint x="1097" y="185" as="targetPoint" />
            <Array as="points">
              <mxPoint x="1097" y="190" />
              <mxPoint x="937" y="190" />
            </Array>
          </mxGeometry>
        </mxCell>
        <mxCell id="Bq6GEns6As0nyry08mrF-85" value="" style="edgeStyle=orthogonalEdgeStyle;rounded=0;orthogonalLoop=1;jettySize=auto;html=1;" edge="1" parent="1" source="Bq6GEns6As0nyry08mrF-46" target="Bq6GEns6As0nyry08mrF-84">
          <mxGeometry relative="1" as="geometry" />
        </mxCell>
        <mxCell id="Bq6GEns6As0nyry08mrF-46" value="Evaluate" style="rhombus;whiteSpace=wrap;html=1;rounded=0;" vertex="1" parent="1">
          <mxGeometry x="1057" y="275" width="80" height="80" as="geometry" />
        </mxCell>
        <mxCell id="Bq6GEns6As0nyry08mrF-50" value="Grid Search" style="text;html=1;align=center;verticalAlign=middle;resizable=0;points=[];autosize=1;strokeColor=none;fillColor=none;" vertex="1" parent="1">
          <mxGeometry x="967" y="185" width="90" height="30" as="geometry" />
        </mxCell>
        <mxCell id="Bq6GEns6As0nyry08mrF-51" value="" style="rounded=1;whiteSpace=wrap;html=1;fillColor=none;" vertex="1" parent="1">
          <mxGeometry x="527" y="570" width="300" height="220" as="geometry" />
        </mxCell>
        <mxCell id="Bq6GEns6As0nyry08mrF-53" value="Dataset with Information Retrieval" style="text;html=1;align=center;verticalAlign=middle;whiteSpace=wrap;rounded=0;fillColor=#dae8fc;strokeColor=#6c8ebf;" vertex="1" parent="1">
          <mxGeometry x="554" y="571" width="220" height="30" as="geometry" />
        </mxCell>
        <mxCell id="Bq6GEns6As0nyry08mrF-54" value="Prompt:&lt;div&gt;&lt;br&gt;&lt;div&gt;Diet +&amp;nbsp;&lt;/div&gt;&lt;div&gt;Information on Diet +&lt;/div&gt;&lt;/div&gt;&lt;div&gt;Ingredients +&lt;/div&gt;&lt;div&gt;Food Category&lt;/div&gt;" style="whiteSpace=wrap;html=1;fontStyle=0;startSize=30;align=left;" vertex="1" parent="1">
          <mxGeometry x="550" y="630" width="120" height="120" as="geometry" />
        </mxCell>
        <mxCell id="Bq6GEns6As0nyry08mrF-63" value="" style="edgeStyle=orthogonalEdgeStyle;rounded=0;orthogonalLoop=1;jettySize=auto;html=1;" edge="1" parent="1" source="Bq6GEns6As0nyry08mrF-56" target="Bq6GEns6As0nyry08mrF-62">
          <mxGeometry relative="1" as="geometry" />
        </mxCell>
        <mxCell id="Bq6GEns6As0nyry08mrF-56" value="Wiki Articles on Dietary Restrictions" style="rounded=0;whiteSpace=wrap;html=1;fillColor=#f5f5f5;fontColor=#333333;strokeColor=#666666;" vertex="1" parent="1">
          <mxGeometry x="86" y="580" width="120" height="60" as="geometry" />
        </mxCell>
        <mxCell id="Bq6GEns6As0nyry08mrF-64" value="" style="edgeStyle=orthogonalEdgeStyle;rounded=0;orthogonalLoop=1;jettySize=auto;html=1;" edge="1" parent="1" source="Bq6GEns6As0nyry08mrF-57" target="Bq6GEns6As0nyry08mrF-62">
          <mxGeometry relative="1" as="geometry" />
        </mxCell>
        <mxCell id="Bq6GEns6As0nyry08mrF-57" value="Clinic Blog Posts for medical needs dietary recommendation" style="rounded=0;whiteSpace=wrap;html=1;fillColor=#f5f5f5;fontColor=#333333;strokeColor=#666666;" vertex="1" parent="1">
          <mxGeometry x="86" y="670" width="120" height="60" as="geometry" />
        </mxCell>
        <mxCell id="Bq6GEns6As0nyry08mrF-66" value="" style="edgeStyle=orthogonalEdgeStyle;rounded=0;orthogonalLoop=1;jettySize=auto;html=1;" edge="1" parent="1" source="Bq6GEns6As0nyry08mrF-62" target="Bq6GEns6As0nyry08mrF-65">
          <mxGeometry relative="1" as="geometry" />
        </mxCell>
        <mxCell id="Bq6GEns6As0nyry08mrF-62" value="Instructor-large&lt;div&gt;Embeddings&lt;/div&gt;" style="rhombus;whiteSpace=wrap;html=1;rounded=0;fillColor=#e1d5e7;strokeColor=#9673a6;" vertex="1" parent="1">
          <mxGeometry x="283" y="610" width="80" height="80" as="geometry" />
        </mxCell>
        <mxCell id="Bq6GEns6As0nyry08mrF-67" value="" style="edgeStyle=orthogonalEdgeStyle;rounded=0;orthogonalLoop=1;jettySize=auto;html=1;" edge="1" parent="1" source="Bq6GEns6As0nyry08mrF-65" target="Bq6GEns6As0nyry08mrF-54">
          <mxGeometry relative="1" as="geometry" />
        </mxCell>
        <mxCell id="Bq6GEns6As0nyry08mrF-65" value="retrieve most similar lines from articles&lt;div&gt;&lt;br&gt;&lt;div&gt;(hard threshold&amp;nbsp;&lt;/div&gt;&lt;div&gt;on cosine&amp;nbsp;&lt;/div&gt;&lt;div&gt;similarity &amp;gt; 0.9)&lt;/div&gt;&lt;/div&gt;" style="whiteSpace=wrap;html=1;rounded=0;" vertex="1" parent="1">
          <mxGeometry x="380" y="585" width="118" height="130" as="geometry" />
        </mxCell>
        <mxCell id="Bq6GEns6As0nyry08mrF-74" value="" style="edgeStyle=orthogonalEdgeStyle;rounded=0;orthogonalLoop=1;jettySize=auto;html=1;" edge="1" parent="1" source="Bq6GEns6As0nyry08mrF-68" target="Bq6GEns6As0nyry08mrF-73">
          <mxGeometry relative="1" as="geometry" />
        </mxCell>
        <mxCell id="Bq6GEns6As0nyry08mrF-68" value="Choice:&lt;div&gt;Yes / No&lt;/div&gt;" style="whiteSpace=wrap;html=1;fontStyle=0;startSize=30;" vertex="1" parent="1">
          <mxGeometry x="697" y="660" width="120" height="60" as="geometry" />
        </mxCell>
        <mxCell id="Bq6GEns6As0nyry08mrF-80" value="" style="edgeStyle=orthogonalEdgeStyle;rounded=0;orthogonalLoop=1;jettySize=auto;html=1;exitX=0.5;exitY=1;exitDx=0;exitDy=0;entryX=0.5;entryY=1;entryDx=0;entryDy=0;" edge="1" parent="1" source="Bq6GEns6As0nyry08mrF-77" target="Bq6GEns6As0nyry08mrF-73">
          <mxGeometry relative="1" as="geometry">
            <mxPoint x="930" y="800" as="targetPoint" />
            <Array as="points">
              <mxPoint x="1097" y="770" />
              <mxPoint x="930" y="770" />
            </Array>
          </mxGeometry>
        </mxCell>
        <mxCell id="Bq6GEns6As0nyry08mrF-81" value="" style="edgeStyle=orthogonalEdgeStyle;rounded=0;orthogonalLoop=1;jettySize=auto;html=1;" edge="1" parent="1" source="Bq6GEns6As0nyry08mrF-73" target="Bq6GEns6As0nyry08mrF-77">
          <mxGeometry relative="1" as="geometry" />
        </mxCell>
        <mxCell id="Bq6GEns6As0nyry08mrF-73" value="Train a Multiple Choice Model" style="whiteSpace=wrap;html=1;fontStyle=0;startSize=30;fillColor=#e1d5e7;strokeColor=#9673a6;" vertex="1" parent="1">
          <mxGeometry x="870" y="660" width="120" height="60" as="geometry" />
        </mxCell>
        <mxCell id="Bq6GEns6As0nyry08mrF-86" value="" style="edgeStyle=orthogonalEdgeStyle;rounded=0;orthogonalLoop=1;jettySize=auto;html=1;" edge="1" parent="1" source="Bq6GEns6As0nyry08mrF-77" target="Bq6GEns6As0nyry08mrF-84">
          <mxGeometry relative="1" as="geometry" />
        </mxCell>
        <mxCell id="Bq6GEns6As0nyry08mrF-77" value="Evaluate" style="rhombus;whiteSpace=wrap;html=1;rounded=0;" vertex="1" parent="1">
          <mxGeometry x="1057" y="650" width="80" height="80" as="geometry" />
        </mxCell>
        <mxCell id="Bq6GEns6As0nyry08mrF-82" value="Grid Search" style="text;html=1;align=center;verticalAlign=middle;resizable=0;points=[];autosize=1;strokeColor=none;fillColor=none;" vertex="1" parent="1">
          <mxGeometry x="960" y="740" width="90" height="30" as="geometry" />
        </mxCell>
        <mxCell id="Bq6GEns6As0nyry08mrF-84" value="Best Model" style="whiteSpace=wrap;html=1;rounded=0;fillColor=#d5e8d4;strokeColor=#82b366;" vertex="1" parent="1">
          <mxGeometry x="1037" y="480" width="120" height="60" as="geometry" />
        </mxCell>
      </root>
    </mxGraphModel>
  </diagram>
</mxfile>
